<?xml version="1.0" encoding="UTF-8"?>
<svg id="Ebene_1" data-name="Ebene 1" xmlns="http://www.w3.org/2000/svg" viewBox="0 0 1920 184.31">
  <defs>
    <style>
      .cls-1 {
        fill-rule: evenodd;
      }

      .cls-2 {
        fill: none;
        stroke: #a3f2ff;
        stroke-linecap: round;
        stroke-linejoin: round;
        stroke-width: 2.25px;
      }
    </style>
  </defs>
  <polyline class="cls-2" points=".82 171.72 148.32 164.98 296.24 163.79 443.75 149.48 591.25 148.95 738.76 144.32 886.67 125.86 1034.18 115.27 1181.69 121.73 1477.11 130.85 1624.61 120.23 1772.13 117.82 1919.63 114.65"/>
  <path class="cls-1" d="M932.16,27.72c-.72.63.06,1.69-.8,2.24.23.86.43,1.45.7,2.19-.13.32-.34.56-.6.75.07.46.03.71.2,1.15-.12.3-.36.47-.6.65-.09.14.03.32,0,.65-.33.45-.95.61-1.05,1.3.51.67,2,.79,2.89.75,1.09,1.14,2.04,2.31,2.64,3.84-.09.9.62,1.7.9,2.59.16.51.25,1.16-.15,1.54.51,2.99,2.58,5.2,3.49,7.77.58-.07.69-.65,1-1.05.24-.31.48-.52.7-.85.39-.59.69-1.27,1.05-1.99.16-.32.42-.62.55-.95.17-.43.25-1,.4-1.49.15-.5.34-1,.4-1.44.11-.81-.25-1.73.1-2.79.89-.44,1.37-1.29,1.94-2.04.29.1.41.35.65.5.47-.46.99-.86,1.64-1.15.85.07,1.45.68.8,1.35.33.27.83.37,1,.8-.13.12-.07.43-.25.5.38.28.72.68.35,1.2.08.3.32.45.45.7-.09.21-.14.46-.2.7-1.04.57-1.31,1.91-2.74,2.09-1.08,1.38-1.5,3.34-1.89,5.28-.12.61-.16,1.23-.35,1.79-.22.66-.56,1.29-.85,1.89-.54,1.13-1.4,2.24-2.19,3.24-.4.51-.79,1.11-1.2,1.49-.66.62-1.1.36-2.04,0-.77-.29-1.44-.45-1.89-.95-.19-.2-.37-.63-.55-.95-.19-.34-.37-.69-.55-1-1.14-1.95-2.45-3.76-3.54-5.53-.44.89-.67,1.99-1.49,2.49-.53,2.78-.99,5.62-2.79,7.12-.86,1.7-.37,3.89-1.15,5.78-.49.33-.31.93-.5,1.39-.25.64-1.05,1.04-1.05,1.84.33.27.75.2,1.2.35,1.46.49,2.65,1.77,4.08,2.54,1.44.77,3.09,1.39,4.53,2.04,1.52.69,2.78,1.65,4.13,2.49.65.41,1.29.87,1.94,1.35.65.48,1.42.89,1.94,1.35.27.24.51.63.8.95.57.64,1.03,1.17,1.54,1.94.53.8.87,1.74.3,2.89-.25.5-.73.86-.95,1.44-.51,1.38-.8,2.99-1.49,4.38-.23.46-.66.71-.15,1.05-.34,2.3-1.57,3.71-1.94,5.98-.42.89-.99,1.8-1.35,2.74-.38,1.01-.77,2.39-1.15,3.64-.32,1.07-.83,2.17-1.05,3.24-.08.43.01.84-.3,1.1,0,.83-.23,1.8-.3,2.59.39.29.59.86.95,1.2.22.2.53.26.65.5.41.8-.17,2.33,1.05,2.54,0,.34.14.48.15.7.19.33.53.26.8.45.63.44.91,1.35,1.59,1.74,1.08.39,2.27.24,3.39.65.09.44.67.56.7,1.05.02.4-.28.7-.5,1.05-1.24.64-2.65.19-3.89.5-.69-.08-1.45-.37-1.99-.3-.12-.06-.26-.1-.35-.2-2.5-.19-3.87-1.51-5.68-2.39-.84-.06-1.5-.6-2.34-.9-.53-.19-1.11-.15-1.54-.4-.37-.21-.87-.77-.95-1.3-.06-.4.08-.88.15-1.2.13-.6.05-1.38.15-1.79.19-.77.64-1.51,1-2.09.2.01.3-.06.4-.15.23.02.34.16.6.15.29-.5.37-1.16.55-1.84.21-.81.63-1.66.4-2.29.16-.33.05-1.07.4-1.35.49-2.54,1.09-5.32,1.69-7.97.13-.59.27-1.39.3-2.14,0-.26-.11-.52-.1-.8.03-.97.26-2.22.6-3.24.09-.28.3-.52.4-.8.11-.33.09-.72.2-.95.11-.22.43-.32.5-.6.1-.42.15-1.06.25-1.54.09-.46.23-.71-.05-1.2-3.58-2.36-9.67-1.89-13.75-3.74-2-.26-3.32-1.2-4.78-1.99-.99.72-1.82,1.62-2.74,2.44-2.7,2.4-6.09,4.22-9.02,6.33-1.33.51-2.38,1.29-3.54,2.04-.39.25-.63.54-1,.85-.25.21-.6.32-.85.55-.37.34-.53.89-.9,1.25-.53.5-1.37.65-2.04.95-1.53-.41-2.57.28-3.84.6-.95.24-1.9.28-2.79.7-.15.13-.3.26-.4.45-2.84.85-6.09,1.92-9.42,2.74-1.1.27-2.3.35-3.29.7-.92.33-1.69.73-2.59.95-.18.17-.37.32-.55.5-.16-.04-.37-.03-.5-.1-1.57.44-2.58,1.48-4.23,1.69-.11.61.15.78.25,1.35-.88.31-1.16,1.23-1.59,1.99.09.29.25.51.55.6.26-.08.18-.22.25-.45.15,0,.14.16.35.1.15.44-.16.64-.45.8-.94,0-1.11-.71-1.15-1.49-.26.6-.41,1.32-.4,2.19-.14.18-.43.2-.65.3-.21,1-.31,2.11-.75,2.89.26-1.19.31-2.05.45-3.29.21-.22.44-.11.6-.4-.3-.88.4-1.83.6-2.69-.33-.03-.47.51-.85.6-.06.29-.29.41-.35.7-.21.03-.29.17-.5.2-.26.38-.49.8-.95,1-.37.98-1.02,1.81-1.64,2.64-.59.79-.82,1.77-1.39,2.64.06.45-.17.97-.35,1.35-.26.16-.55.29-.85.4-.75-.47-.77-1.48-.85-2.64-.12-1.67.04-3.64.5-5.13.11-.35.35-.74.5-1.1.16-.37.3-.74.45-1.1.36-.84.97-1.67,1.1-2.74.17-1.5.02-3.27.4-4.88.23-.32.7-.49,1-.6.02-.26.22-.34.35-.5.82.08,1.55.02,2.29.3.25.1.39.37.65.5.39.19.77.07,1.15.3.24-.07.35.05.55-.05.21-.02.19.18.35.2.76-.25,1.9-.16,2.49-.75,1.06-.15,2.03-.7,3.09-1.15.67-.28,1.38-.54,1.99-.85.45-.23.88-.58,1.35-.85.9-.53,1.85-.89,2.84-1.35.5-.23,1.12-.39,1.49-.65.39-.27.63-.83,1.1-1.15.27-.18.68-.35,1.05-.55.36-.2.74-.34,1.1-.5.92-.42,1.73-1.13,2.89-.85,1.65-.5,3.06-1.02,4.73-1.49.54-.15,1.18-.17,1.64-.4.25-.12.73-.73,1.05-1.1,1.67-1.95,2.99-4.07,4.38-6.28.27-.42.55-.89.85-1.3.64-.88,1.29-1.54,2.09-2.29.4-.38.72-.83,1.1-1.15.81-.68,1.78-1.12,2.64-1.84.22-.87.8-1.46.9-2.29.03-.26-.12-.53-.1-.8.04-.59.3-1.23.55-1.79.34-1.86,1.61-2.77,2.19-4.38.9-1.12,2.11-1.95,3.24-2.84.26-1.58,1.15-2.79,1.25-4.23.05-.71-.42-1.71-.5-2.44-.03-.29.06-.6,0-.85-.07-.26-.35-.45-.45-.7-.25-.59-.35-1.33-.55-1.99-.56-1.87-1.19-3.96-1.74-5.88-1.27-.49-2.86-.27-4.48-.5-.58-.08-1.12-.39-1.64-.45-.4-.04-.91.1-1.39.15-.46.05-.93.08-1.39.15-1.02.16-1.83,0-2.59.15-1.17.24-.67,1.05-.5,2.14.26,1.64.26,3.03.65,4.48.58,2.13,1.51,3.89,2.39,5.48.08.56.24,1.03.35,1.54.1.46.1.98.25,1.39.12.33.46.54.6.85.42.95.04,2.05.45,3.24-.3.38-.26,1.38.1,2.09.1.21.33.38.5.6.37.48.43.74-.15,1-.6-.23-1.24-.42-1.54-.95-.13.44-.14.79-.05,1.15-.28.34-1.12.53-1.3-.05-.12.25-.39.34-.6.5-.26-.09-.45-.25-.65-.4-.03-.33.03-.48-.05-.7-.15,0-.38.18-.6.35-.26-.18-.3-.59-.55-.8.17-.41.31-.85.45-1.3-.27.1-.43.3-.75.35-1.26-.94-.65-3.32-.2-4.88.15-.52.43-1.1.45-1.54.02-.5-.44-1.24-.75-1.84-.33-.65-.6-1.31-.85-1.84-.58-1.25-1.25-2.39-1.79-3.49-1.23-2.46-2.15-4.99-2.54-7.72-.21-.41-.42-1.02-.4-1.64,1.26-1.38,2.73-2.68,4.63-3.39.92-.34,1.92-.67,2.94-1,.96-.31,1.96-.73,2.94-.85,1.58-.19,3.22.23,4.73-.05,1.06-.19,1.9-1.17,2.94-1.39.48-.1,1.49-.08,2.09,0,.64-.4,1.35-.75,2.04-1.1.68.26.92-.35,1.49-.25.15-.15.19-.41.35-.55.33-.02.47-.02.7-.05.68-.81,1.15-1.99.7-3.09-.11-.26-.36-.46-.45-.75-.13-.44.07-1.02-.1-1.44-.15-.39-.63-.58-.85-.95-.11-.19-.28-.6-.35-.85-.23-.8-.26-1.47-.25-2.24-.34-.09-.81.18-1.25.1-.73-.81-1.12-1.95-.7-3.29.14-.43.93-1.55,1.3-1.89.4-.37,1.36-.75,1.74-.7.58.09.83.69,1.3,1,1.03-.18,2.01-.86,3.09-1.05,1-.17,2.06.16,3.04.6.32-.16.53-.06.95,0,.17.23.37.43.5.7.99.46,1.89,1.18,2.54,1.94.04.05.12.15.15.2.77,1.23.93,2.79,1.64,4.08Z"/>
</svg>