<?xml version="1.0" encoding="UTF-8"?>
<svg id="Ebene_1" data-name="Ebene 1" xmlns="http://www.w3.org/2000/svg" viewBox="0 0 596.02 236.14">
  <defs>
    <style>
      .cls-1 {
        fill-rule: evenodd;
      }

      .cls-2 {
        fill: none;
        stroke: #a3f2ff;
        stroke-linecap: round;
        stroke-linejoin: round;
        stroke-width: 2.25px;
      }
    </style>
  </defs>
  <polyline class="cls-2" points="14.64 211.57 58.11 192.63 101.7 189.3 145.17 149.14 188.64 147.66 232.11 134.64 275.7 82.83 319.17 53.1 362.64 71.25 449.7 96.84 493.17 67.03 536.64 60.27 580.11 51.38"/>
  <path class="cls-1" d="M331.35,7.78c-.39.34.03.93-.44,1.23.13.47.24.79.38,1.2-.07.17-.19.31-.33.41.04.25.02.39.11.63-.06.16-.2.26-.33.35-.05.08.02.18,0,.35-.18.25-.52.33-.57.71.28.36,1.09.43,1.58.41.6.63,1.12,1.27,1.45,2.1-.05.49.34.93.49,1.42.09.28.14.64-.08.85.28,1.64,1.41,2.85,1.91,4.26.32-.04.38-.36.55-.57.13-.17.27-.29.38-.46.21-.32.38-.7.57-1.09.08-.17.23-.34.3-.52.09-.24.14-.55.22-.82.08-.27.19-.55.22-.79.06-.45-.14-.95.05-1.53.49-.24.75-.7,1.06-1.12.16.05.22.19.35.27.26-.25.54-.47.9-.63.47.04.8.37.44.74.18.15.45.2.55.44-.07.06-.04.23-.14.27.21.15.39.37.19.65.05.16.17.25.25.38-.05.12-.08.25-.11.38-.57.31-.72,1.05-1.5,1.15-.59.76-.82,1.83-1.04,2.89-.07.33-.09.67-.19.98-.12.36-.31.71-.46,1.04-.29.62-.77,1.23-1.2,1.77-.22.28-.43.61-.65.82-.36.34-.6.19-1.12,0-.42-.16-.79-.25-1.04-.52-.1-.11-.2-.35-.3-.52-.11-.18-.2-.38-.3-.55-.62-1.07-1.34-2.06-1.94-3.03-.24.49-.37,1.09-.82,1.36-.29,1.52-.54,3.08-1.53,3.9-.47.93-.2,2.13-.63,3.17-.27.18-.17.51-.27.76-.14.35-.58.57-.57,1.01.18.15.41.11.65.19.8.27,1.45.97,2.24,1.39.79.42,1.69.76,2.48,1.12.84.38,1.52.9,2.27,1.36.36.22.71.47,1.06.74.36.26.78.49,1.06.74.15.13.28.35.44.52.31.35.56.64.85,1.06.29.44.48.96.16,1.58-.14.27-.4.47-.52.79-.28.76-.44,1.64-.82,2.4-.13.25-.36.39-.08.57-.19,1.26-.86,2.03-1.06,3.27-.23.49-.54.98-.74,1.5-.21.55-.42,1.31-.63,1.99-.18.59-.46,1.19-.57,1.77-.05.23,0,.46-.16.6,0,.46-.13.99-.16,1.42.21.16.32.47.52.65.12.11.29.14.35.27.22.44-.09,1.27.57,1.39,0,.19.08.26.08.38.1.18.29.14.44.25.35.24.5.74.87.96.59.21,1.24.13,1.86.35.05.24.37.31.38.57.01.22-.15.39-.27.57-.68.35-1.45.1-2.13.27-.38-.04-.79-.2-1.09-.16-.07-.03-.15-.06-.19-.11-1.37-.1-2.12-.82-3.11-1.31-.46-.03-.82-.33-1.28-.49-.29-.1-.61-.08-.85-.22-.2-.11-.47-.42-.52-.71-.03-.22.04-.48.08-.65.07-.33.03-.75.08-.98.1-.42.35-.83.55-1.15.11,0,.17-.03.22-.08.13,0,.19.09.33.08.16-.27.2-.64.3-1.01.11-.44.35-.91.22-1.26.09-.18.03-.59.22-.74.27-1.39.6-2.91.93-4.37.07-.32.15-.76.16-1.17,0-.14-.06-.29-.05-.44.01-.53.14-1.22.33-1.77.05-.15.17-.28.22-.44.06-.18.05-.4.11-.52.06-.12.23-.17.27-.33.06-.23.08-.58.14-.85.05-.25.13-.39-.03-.65-1.96-1.29-5.3-1.04-7.53-2.05-1.1-.14-1.82-.66-2.62-1.09-.54.39-1,.89-1.5,1.34-1.48,1.31-3.33,2.31-4.94,3.47-.73.28-1.3.71-1.94,1.12-.21.14-.34.3-.55.46-.13.11-.33.17-.46.3-.2.19-.29.49-.49.68-.29.27-.75.35-1.12.52-.84-.22-1.41.15-2.1.33-.52.13-1.04.15-1.53.38-.08.07-.17.14-.22.25-1.55.46-3.33,1.05-5.16,1.5-.6.15-1.26.19-1.8.38-.5.18-.93.4-1.42.52-.1.09-.2.18-.3.27-.09-.02-.2-.02-.27-.05-.86.24-1.42.81-2.32.93-.06.33.08.43.14.74-.48.17-.64.67-.87,1.09.05.16.14.28.3.33.14-.04.1-.12.14-.25.08,0,.08.09.19.05.08.24-.09.35-.25.44-.51,0-.61-.39-.63-.82-.14.33-.22.72-.22,1.2-.08.1-.23.11-.35.16-.11.55-.17,1.16-.41,1.58.14-.65.17-1.12.25-1.8.11-.12.24-.06.33-.22-.17-.48.22-1,.33-1.47-.18-.01-.26.28-.46.33-.03.16-.16.22-.19.38-.11.01-.16.1-.27.11-.14.21-.27.44-.52.55-.2.54-.56.99-.9,1.45-.32.43-.45.97-.76,1.45.03.25-.1.53-.19.74-.14.09-.3.16-.46.22-.41-.26-.42-.81-.46-1.45-.06-.92.02-1.99.27-2.81.06-.19.19-.41.27-.6.09-.2.16-.41.25-.6.2-.46.53-.92.6-1.5.09-.82.01-1.79.22-2.67.13-.17.38-.27.55-.33.01-.14.12-.19.19-.27.45.05.85.01,1.26.16.14.05.21.2.35.27.22.11.42.04.63.16.13-.04.19.03.3-.03.11-.01.1.1.19.11.42-.13,1.04-.09,1.36-.41.58-.08,1.11-.38,1.69-.63.37-.16.75-.3,1.09-.46.25-.12.48-.32.74-.46.49-.29,1.02-.49,1.56-.74.27-.13.62-.21.82-.35.21-.15.34-.45.6-.63.15-.1.37-.19.57-.3.2-.11.41-.18.6-.27.5-.23.95-.62,1.58-.46.9-.27,1.68-.56,2.59-.82.29-.08.65-.09.9-.22.14-.07.4-.4.57-.6.92-1.07,1.64-2.23,2.4-3.44.15-.23.3-.49.46-.71.35-.48.71-.85,1.15-1.26.22-.21.39-.45.6-.63.44-.37.98-.62,1.45-1.01.12-.47.44-.8.49-1.26.02-.14-.07-.29-.05-.44.02-.32.17-.68.3-.98.18-1.02.88-1.52,1.2-2.4.49-.62,1.15-1.07,1.77-1.56.14-.86.63-1.53.68-2.32.02-.39-.23-.94-.27-1.34-.02-.16.03-.33,0-.46-.04-.14-.19-.25-.25-.38-.14-.33-.19-.73-.3-1.09-.31-1.03-.65-2.17-.96-3.22-.7-.27-1.56-.15-2.46-.27-.32-.04-.61-.22-.9-.25-.22-.02-.5.06-.76.08-.25.02-.51.04-.76.08-.56.09-1,0-1.42.08-.64.13-.37.57-.27,1.17.14.9.14,1.66.35,2.46.32,1.17.83,2.13,1.31,3,.04.31.13.57.19.85.06.25.05.53.14.76.07.18.25.3.33.46.23.52.02,1.12.25,1.77-.17.21-.14.76.05,1.15.06.11.18.21.27.33.2.27.23.4-.08.55-.33-.13-.68-.23-.85-.52-.07.24-.07.43-.03.63-.15.19-.61.29-.71-.03-.07.14-.21.19-.33.27-.14-.05-.25-.14-.35-.22-.01-.18.02-.26-.03-.38-.08,0-.21.1-.33.19-.14-.1-.17-.33-.3-.44.09-.23.17-.47.25-.71-.15.05-.23.17-.41.19-.69-.51-.36-1.82-.11-2.67.08-.29.23-.6.25-.85.01-.28-.24-.68-.41-1.01-.18-.36-.33-.72-.46-1.01-.32-.69-.68-1.31-.98-1.91-.67-1.35-1.18-2.73-1.39-4.23-.12-.22-.23-.56-.22-.9.69-.76,1.5-1.47,2.54-1.86.5-.19,1.05-.37,1.61-.55.53-.17,1.07-.4,1.61-.46.87-.1,1.77.12,2.59-.03.58-.11,1.04-.64,1.61-.76.26-.06.81-.04,1.15,0,.35-.22.74-.41,1.12-.6.37.14.5-.19.82-.14.08-.08.1-.22.19-.3.18,0,.26,0,.38-.03.37-.44.63-1.09.38-1.69-.06-.14-.2-.25-.25-.41-.07-.24.04-.56-.05-.79-.08-.21-.35-.32-.46-.52-.06-.1-.15-.33-.19-.46-.13-.44-.14-.81-.14-1.23-.19-.05-.45.1-.68.05-.4-.44-.62-1.07-.38-1.8.07-.23.51-.85.71-1.04.22-.2.75-.41.96-.38.32.05.46.38.71.55.56-.1,1.1-.47,1.69-.57.55-.09,1.13.09,1.66.33.18-.09.29-.03.52,0,.09.12.2.23.27.38.54.25,1.04.65,1.39,1.06.02.02.07.08.08.11.42.67.51,1.53.9,2.24Z"/>
</svg>